<svg xmlns="http://www.w3.org/2000/svg" xmlns:xlink="http://www.w3.org/1999/xlink" contentStyleType="text/css" data-diagram-type="DESCRIPTION" height="1927px" preserveAspectRatio="none" style="width:1033px;height:1927px;background:#FFFFFF;" version="1.1" viewBox="0 0 1033 1927" width="1033px" zoomAndPan="magnify"><?plantuml 1.2026.7beta1?><defs/><g><g class="title" data-source-line="1"><text fill="#000000" font-family="Courier New" font-size="14" font-weight="700" lengthAdjust="spacing" textLength="570.4111" x="227.7944" y="22.9951">Diagram&#259; sistem IDS: captur&#259; trafic, procesare, Kafka, Spark Streaming</text></g><!--cluster MonitoredStack--><g class="cluster" data-qualified-name="MonitoredStack" data-source-line="31" id="ent0002"><rect fill="#F8F9FA" height="367.69" rx="2.5" ry="2.5" style="stroke:#333333;stroke-width:1;" width="586" x="7" y="44.2969"/><text fill="#000000" font-family="Courier New" font-size="14" font-weight="700" lengthAdjust="spacing" textLength="195.3916" x="202.3042" y="59.292">Stack Docker Compose 1</text><text fill="#000000" font-family="Courier New" font-size="14" font-weight="700" lengthAdjust="spacing" textLength="170.9189" x="214.5405" y="75.5889">Re&#539;eaua monitorizat&#259;</text></g><!--cluster DockerNetwork--><g class="cluster" data-qualified-name="MonitoredStack.DockerNetwork" data-source-line="33" id="ent0003"><rect fill="#F8F9FA" height="268.69" rx="2.5" ry="2.5" style="stroke:#333333;stroke-width:1;" width="522" x="39" y="111.2969"/><text fill="#000000" font-family="Courier New" font-size="14" font-weight="700" lengthAdjust="spacing" textLength="125.043" x="237.4785" y="126.292">Docker network</text></g><!--cluster ProcessingStack--><g class="cluster" data-qualified-name="ProcessingStack" data-source-line="47" id="ent0012"><rect fill="#F8F9FA" height="1452.34" rx="2.5" ry="2.5" style="stroke:#333333;stroke-width:1;" width="604" x="415" y="460.9869"/><text fill="#000000" font-family="Courier New" font-size="14" font-weight="700" lengthAdjust="spacing" textLength="195.3916" x="619.3042" y="475.982">Stack Docker Compose 2</text><text fill="#000000" font-family="Courier New" font-size="14" font-weight="700" lengthAdjust="spacing" textLength="250.3525" x="591.8237" y="492.2789">Pipeline de procesare &#537;i analiz&#259;</text></g><!--entity Server--><g class="entity" data-qualified-name="MonitoredStack.DockerNetwork.Server" data-source-line="34" id="ent0004"><rect fill="#FFFFFF" height="52.5938" rx="2.5" ry="2.5" style="stroke:#333333;stroke-width:0.5;" width="122.5322" x="133.73" y="303.3869"/><text fill="#000000" font-family="Courier New" font-size="14" lengthAdjust="spacing" textLength="102.5322" x="143.73" y="326.382">Server Node.js</text><text fill="#000000" font-family="Courier New" font-size="14" lengthAdjust="spacing" textLength="91.6426" x="143.73" y="342.6789">containerizat</text></g><!--entity Client--><g class="entity" data-qualified-name="MonitoredStack.DockerNetwork.Client" data-source-line="35" id="ent0005"><rect fill="#FFFFFF" height="52.5938" rx="2.5" ry="2.5" style="stroke:#333333;stroke-width:0.5;" width="60.5303" x="62.73" y="154.2969"/><text fill="#000000" font-family="Courier New" font-size="14" lengthAdjust="spacing" textLength="40.5303" x="72.73" y="177.292">Client</text><text fill="#000000" font-family="Courier New" font-size="14" lengthAdjust="spacing" textLength="35.4717" x="72.73" y="193.5889">cURL</text></g><!--entity Attacker--><g class="entity" data-qualified-name="MonitoredStack.DockerNetwork.Attacker" data-source-line="36" id="ent0006"><rect fill="#FFFFFF" height="52.5938" rx="2.5" ry="2.5" style="stroke:#333333;stroke-width:0.5;" width="153.3965" x="158.3" y="154.2969"/><text fill="#000000" font-family="Courier New" font-size="14" lengthAdjust="spacing" textLength="133.3965" x="168.3" y="177.292">Container simulare</text><text fill="#000000" font-family="Courier New" font-size="14" lengthAdjust="spacing" textLength="111.3369" x="168.3" y="193.5889">scenarii de atac</text></g><!--entity Tcpdump--><g class="entity" data-qualified-name="MonitoredStack.DockerNetwork.Tcpdump" data-source-line="37" id="ent0007"><rect fill="#FFFFFF" height="52.5938" rx="2.5" ry="2.5" style="stroke:#333333;stroke-width:0.5;" width="182.5791" x="346.71" y="154.2969"/><text fill="#000000" font-family="Courier New" font-size="14" lengthAdjust="spacing" textLength="112.6836" x="356.71" y="177.292">Sniffer tcpdump</text><text fill="#000000" font-family="Courier New" font-size="14" lengthAdjust="spacing" textLength="162.5791" x="356.71" y="193.5889">ferestre de 60 secunde</text></g><!--entity PcapWatcher--><g class="entity" data-qualified-name="ProcessingStack.PcapWatcher" data-source-line="49" id="ent0013"><rect fill="#FFFFFF" height="52.5938" rx="2.5" ry="2.5" style="stroke:#333333;stroke-width:0.5;" width="158.4688" x="598.77" y="511.9869"/><text fill="#000000" font-family="Courier New" font-size="14" lengthAdjust="spacing" textLength="134.0186" x="608.77" y="534.982">Script monitorizare</text><text fill="#000000" font-family="Courier New" font-size="14" lengthAdjust="spacing" textLength="81.3271" x="613.2202" y="551.2789">folder PCAP</text></g><!--entity PcapQueue--><g class="entity" data-qualified-name="ProcessingStack.PcapQueue" data-source-line="50" id="ent0014"><path d="M593.36,641.5769 L762.6442,641.5769 C767.6442,641.5769 767.6442,654.7253 767.6442,654.7253 C767.6442,654.7253 767.6442,667.8738 762.6442,667.8738 L593.36,667.8738 C588.36,667.8738 588.36,654.7253 588.36,654.7253 C588.36,654.7253 588.36,641.5769 593.36,641.5769" fill="#FFF6E5" style="stroke:#333333;stroke-width:0.5;"/><path d="M762.6442,641.5769 C757.6442,641.5769 757.6442,654.7253 757.6442,654.7253 C757.6442,667.8738 762.6442,667.8738 762.6442,667.8738" fill="none" style="stroke:#333333;stroke-width:0.5;"/><text fill="#000000" font-family="Courier New" font-size="14" lengthAdjust="spacing" textLength="159.2842" x="593.36" y="659.572">Coad&#259; procesare PCAP</text></g><!--entity CicFlowMeter--><g class="entity" data-qualified-name="ProcessingStack.CicFlowMeter" data-source-line="51" id="ent0015"><rect fill="#FFFFFF" height="52.5938" rx="2.5" ry="2.5" style="stroke:#333333;stroke-width:0.5;" width="145.4463" x="605.28" y="744.8769"/><text fill="#000000" font-family="Courier New" font-size="14" lengthAdjust="spacing" textLength="96.1885" x="615.28" y="767.872">CICFlowMeter</text><text fill="#000000" font-family="Courier New" font-size="14" lengthAdjust="spacing" textLength="125.4463" x="615.28" y="784.1689">extragere flow-uri</text></g><!--entity CsvFolder--><g class="entity" data-qualified-name="ProcessingStack.CsvFolder" data-source-line="52" id="ent0016"><path d="M596.23,884.4669 C596.23,874.4669 678.0039,874.4669 678.0039,874.4669 C678.0039,874.4669 759.7779,874.4669 759.7779,884.4669 L759.7779,926.0606 C759.7779,936.0606 678.0039,936.0606 678.0039,936.0606 C678.0039,936.0606 596.23,936.0606 596.23,926.0606 L596.23,884.4669" fill="#EEF3FF" style="stroke:#333333;stroke-width:0.5;"/><path d="M596.23,884.4669 C596.23,894.4669 678.0039,894.4669 678.0039,894.4669 C678.0039,894.4669 759.7779,894.4669 759.7779,884.4669" fill="none" style="stroke:#333333;stroke-width:0.5;"/><text fill="#000000" font-family="Courier New" font-size="14" lengthAdjust="spacing" textLength="107.2559" x="606.23" y="911.462">data/input_csv/</text><text fill="#000000" font-family="Courier New" font-size="14" lengthAdjust="spacing" textLength="143.5479" x="606.23" y="927.7589">fi&#537;iere CSV generate</text></g><!--entity KafkaProducer--><g class="entity" data-qualified-name="ProcessingStack.KafkaProducer" data-source-line="54" id="ent0017"><rect fill="#FFFFFF" height="36.2969" rx="2.5" ry="2.5" style="stroke:#333333;stroke-width:0.5;" width="171.4707" x="592.26" y="1013.0569"/><text fill="#000000" font-family="Courier New" font-size="14" lengthAdjust="spacing" textLength="151.4707" x="602.26" y="1036.052">Script Kafka Producer</text></g><!--entity CsvQueue--><g class="entity" data-qualified-name="ProcessingStack.CsvQueue" data-source-line="55" id="ent0018"><path d="M597.36,1159.0069 L758.6461,1159.0069 C763.6461,1159.0069 763.6461,1172.1553 763.6461,1172.1553 C763.6461,1172.1553 763.6461,1185.3037 758.6461,1185.3037 L597.36,1185.3037 C592.36,1185.3037 592.36,1172.1553 592.36,1172.1553 C592.36,1172.1553 592.36,1159.0069 597.36,1159.0069" fill="#FFF6E5" style="stroke:#333333;stroke-width:0.5;"/><path d="M758.6461,1159.0069 C753.6461,1159.0069 753.6461,1172.1553 753.6461,1172.1553 C753.6461,1185.3037 758.6461,1185.3037 758.6461,1185.3037" fill="none" style="stroke:#333333;stroke-width:0.5;"/><text fill="#000000" font-family="Courier New" font-size="14" lengthAdjust="spacing" textLength="151.2861" x="597.36" y="1177.002">Coad&#259; procesare CSV</text></g><!--entity KafkaTopic--><g class="entity" data-qualified-name="ProcessingStack.KafkaTopic" data-source-line="56" id="ent0019"><path d="M439.98,1150.8569 L548.0142,1150.8569 C553.0142,1150.8569 553.0142,1172.1538 553.0142,1172.1538 C553.0142,1172.1538 553.0142,1193.4506 548.0142,1193.4506 L439.98,1193.4506 C434.98,1193.4506 434.98,1172.1538 434.98,1172.1538 C434.98,1172.1538 434.98,1150.8569 439.98,1150.8569" fill="#FFF6E5" style="stroke:#333333;stroke-width:0.5;"/><path d="M548.0142,1150.8569 C543.0142,1150.8569 543.0142,1172.1538 543.0142,1172.1538 C543.0142,1193.4506 548.0142,1193.4506 548.0142,1193.4506" fill="none" style="stroke:#333333;stroke-width:0.5;"/><text fill="#000000" font-family="Courier New" font-size="14" lengthAdjust="spacing" textLength="78.3535" x="439.98" y="1168.852">Kafka topic</text><text fill="#000000" font-family="Courier New" font-size="14" lengthAdjust="spacing" textLength="98.0342" x="439.98" y="1185.1489">network-flows</text></g><!--entity SparkStreaming--><g class="entity" data-qualified-name="ProcessingStack.SparkStreaming" data-source-line="58" id="ent0020"><rect fill="#FFFFFF" height="52.5938" rx="2.5" ry="2.5" style="stroke:#333333;stroke-width:0.5;" width="216.0479" x="620.98" y="1294.9469"/><text fill="#000000" font-family="Courier New" font-size="14" lengthAdjust="spacing" textLength="196.0479" x="630.98" y="1317.942">Spark Structured Streaming</text><text fill="#000000" font-family="Courier New" font-size="14" lengthAdjust="spacing" textLength="144.2383" x="630.98" y="1334.2389">citire din topic Kafka</text></g><!--entity SavedModel--><g class="entity" data-qualified-name="ProcessingStack.SavedModel" data-source-line="59" id="ent0021"><path d="M798.54,1151.3569 C798.54,1141.3569 865.0048,1141.3569 865.0048,1141.3569 C865.0048,1141.3569 931.4697,1141.3569 931.4697,1151.3569 L931.4697,1192.9506 C931.4697,1202.9506 865.0048,1202.9506 865.0048,1202.9506 C865.0048,1202.9506 798.54,1202.9506 798.54,1192.9506 L798.54,1151.3569" fill="#EEF3FF" style="stroke:#333333;stroke-width:0.5;"/><path d="M798.54,1151.3569 C798.54,1161.3569 865.0048,1161.3569 865.0048,1161.3569 C865.0048,1161.3569 931.4697,1161.3569 931.4697,1151.3569" fill="none" style="stroke:#333333;stroke-width:0.5;"/><text fill="#000000" font-family="Courier New" font-size="14" lengthAdjust="spacing" textLength="112.9297" x="808.54" y="1178.352">Model ML salvat</text><text fill="#000000" font-family="Courier New" font-size="14" lengthAdjust="spacing" textLength="97.1318" x="808.54" y="1194.6489">PipelineModel</text></g><!--entity Preprocess--><g class="entity" data-qualified-name="ProcessingStack.Preprocess" data-source-line="60" id="ent0022"><rect fill="#FFFFFF" height="36.2969" rx="2.5" ry="2.5" style="stroke:#333333;stroke-width:0.5;" width="148.5908" x="654.7" y="1424.5469"/><text fill="#000000" font-family="Courier New" font-size="14" lengthAdjust="spacing" textLength="128.5908" x="664.7" y="1447.542">Preprocesare date</text></g><!--entity MLModel--><g class="entity" data-qualified-name="ProcessingStack.MLModel" data-source-line="61" id="ent0023"><rect fill="#FFFFFF" height="52.5938" rx="2.5" ry="2.5" style="stroke:#333333;stroke-width:0.5;" width="161.1963" x="648.4" y="1552.8469"/><text fill="#000000" font-family="Courier New" font-size="14" lengthAdjust="spacing" textLength="129.2607" x="658.4" y="1575.842">Aplicare model ML</text><text fill="#000000" font-family="Courier New" font-size="14" lengthAdjust="spacing" textLength="141.1963" x="658.4" y="1592.1389">model.transform(...)</text></g><!--entity DetectionResults--><g class="entity" data-qualified-name="ProcessingStack.DetectionResults" data-source-line="62" id="ent0024"><rect fill="#FFFFFF" height="52.5938" rx="2.5" ry="2.5" style="stroke:#333333;stroke-width:0.5;" width="225.7412" x="616.13" y="1694.2869"/><text fill="#000000" font-family="Courier New" font-size="14" lengthAdjust="spacing" textLength="128.3652" x="626.13" y="1717.282">Rezultate detec&#539;ie</text><text fill="#000000" font-family="Courier New" font-size="14" lengthAdjust="spacing" textLength="205.7412" x="626.13" y="1733.5789">predicted_class + confidence</text></g><!--entity SparkOutput--><g class="entity" data-qualified-name="ProcessingStack.SparkOutput" data-source-line="64" id="ent0025"><path d="M465.3,1845.7369 C465.3,1835.7369 553.0041,1835.7369 553.0041,1835.7369 C553.0041,1835.7369 640.7082,1835.7369 640.7082,1845.7369 L640.7082,1887.3306 C640.7082,1897.3306 553.0041,1897.3306 553.0041,1897.3306 C553.0041,1897.3306 465.3,1897.3306 465.3,1887.3306 L465.3,1845.7369" fill="#EEF3FF" style="stroke:#333333;stroke-width:0.5;"/><path d="M465.3,1845.7369 C465.3,1855.7369 553.0041,1855.7369 553.0041,1855.7369 C553.0041,1855.7369 640.7082,1855.7369 640.7082,1845.7369" fill="none" style="stroke:#333333;stroke-width:0.5;"/><text fill="#000000" font-family="Courier New" font-size="14" lengthAdjust="spacing" textLength="96.5166" x="475.3" y="1872.732">spark_output/</text><text fill="#000000" font-family="Courier New" font-size="14" lengthAdjust="spacing" textLength="155.4082" x="475.3" y="1889.0289">log-uri format Parquet</text></g><!--entity Console--><g class="entity" data-qualified-name="ProcessingStack.Console" data-source-line="65" id="ent0026"><rect fill="#FFFFFF" height="52.5938" rx="2.5" ry="2.5" style="stroke:#333333;stroke-width:0.5;" width="138.084" x="692.96" y="1840.2369"/><text fill="#000000" font-family="Courier New" font-size="14" lengthAdjust="spacing" textLength="113.6338" x="702.96" y="1863.232">Consol&#259; - sumar</text><text fill="#000000" font-family="Courier New" font-size="14" lengthAdjust="spacing" textLength="56.998" x="702.96" y="1879.5289">predic&#539;ii</text></g><!--entity Operator--><g class="entity" data-qualified-name="Operator" data-source-line="29" id="ent0001"><ellipse cx="299.0018" cy="1690.9369" fill="#F1F1F1" rx="8" ry="8" style="stroke:#181818;stroke-width:0.5;"/><path d="M299.0018,1698.9369 L299.0018,1725.9369 M286.0018,1706.9369 L312.0018,1706.9369 M299.0018,1725.9369 L286.0018,1740.9369 M299.0018,1725.9369 L312.0018,1740.9369" fill="none" style="stroke:#181818;stroke-width:0.5;"/><text fill="#000000" font-family="Courier New" font-size="14" lengthAdjust="spacing" textLength="63.1436" x="267.43" y="1755.432">Utilizator</text></g><!--entity PcapFolder--><g class="entity" data-qualified-name="PcapFolder" data-source-line="45" id="ent0011"><path d="M608.99,308.8869 C608.99,298.8869 678.0046,298.8869 678.0046,298.8869 C678.0046,298.8869 747.0193,298.8869 747.0193,308.8869 L747.0193,350.4806 C747.0193,360.4806 678.0046,360.4806 678.0046,360.4806 C678.0046,360.4806 608.99,360.4806 608.99,350.4806 L608.99,308.8869" fill="#EEF3FF" style="stroke:#333333;stroke-width:0.5;"/><path d="M608.99,308.8869 C608.99,318.8869 678.0046,318.8869 678.0046,318.8869 C678.0046,318.8869 747.0193,318.8869 747.0193,308.8869" fill="none" style="stroke:#333333;stroke-width:0.5;"/><text fill="#000000" font-family="Courier New" font-size="14" lengthAdjust="spacing" textLength="118.0293" x="618.99" y="335.882">data/input_pcap/</text><text fill="#000000" font-family="Courier New" font-size="14" lengthAdjust="spacing" textLength="83.6719" x="618.99" y="352.1789">fi&#537;iere PCAP</text></g><!--link Client to Server--><g class="link" data-entity-1="ent0005" data-entity-2="ent0004" data-link-type="dependency" data-source-line="40" id="lnk8"><path d="M85.75,207.0269 C82.01,225.4369 80.22,250.2569 91,268.8869 C100.6,285.4769 112.3339,295.4848 129.0539,304.5448" fill="none" id="Client-to-Server" style="stroke:#333333;stroke-width:1;"/><polygon fill="#333333" points="133.45,306.9269,127.4427,299.1222,129.0539,304.5448,123.6314,306.156,133.45,306.9269" style="stroke:#333333;stroke-width:1;stroke-linejoin:miter;stroke-miterlimit:10;"/><text fill="#000000" font-family="Courier New" font-size="13" lengthAdjust="spacing" textLength="127.2832" x="92" y="257.4538">trafic obi&#537;nuit HTTP</text></g><!--link Attacker to Server--><g class="link" data-entity-1="ent0006" data-entity-2="ent0004" data-link-type="dependency" data-source-line="41" id="lnk9"><path d="M232.54,207.1869 C231.68,216.5269 230.74,227.1869 230,236.8869 C229.46,243.9969 229.99,262.0469 228,268.8869 C224.55,280.7269 221.0051,288.5131 214.9851,298.6931" fill="none" id="Attacker-to-Server" style="stroke:#333333;stroke-width:1;"/><polygon fill="#333333" points="212.44,302.9969,220.4642,297.2861,214.9851,298.6931,213.5781,293.214,212.44,302.9969" style="stroke:#333333;stroke-width:1;stroke-linejoin:miter;stroke-miterlimit:10;"/><text fill="#000000" font-family="Courier New" font-size="13" lengthAdjust="spacing" textLength="45.373" x="231" y="257.4538">atacuri</text></g><!--link Tcpdump to DockerNetwork--><g class="link" data-entity-1="ent0007" data-entity-2="ent0003" data-link-type="dependency" data-source-line="42" id="lnk10"><path d="M445.17,207.3469 C451.61,226.4069 462.74,251.8969 480,268.8869 C502.68,291.2069 524.49,274.5569 545,298.8869 C553.56,309.0469 553.2153,322.49 553.1753,323.63" fill="none" id="Tcpdump-to-DockerNetwork" style="stroke:#333333;stroke-width:1;stroke-dasharray:7,7;"/><polygon fill="#333333" points="553,328.6269,557.3131,319.7727,553.1753,323.63,549.3181,319.4921,553,328.6269" style="stroke:#333333;stroke-width:1;stroke-linejoin:miter;stroke-miterlimit:10;"/><text fill="#000000" font-family="Courier New" font-size="13" lengthAdjust="spacing" textLength="110.6777" x="481" y="257.4538">captureaz&#259; trafic</text></g><!--link Tcpdump to PcapFolder--><g class="link" data-entity-1="ent0007" data-entity-2="ent0011" data-link-type="dependency" data-source-line="68" id="lnk27"><path d="M509.61,207.2569 C529.45,215.5769 550.58,225.6069 569,236.8869 C597.69,254.4669 622.9995,275.8709 643.8495,295.2709" fill="none" id="Tcpdump-to-PcapFolder" style="stroke:#333333;stroke-width:1;"/><polygon fill="#333333" points="647.51,298.6769,643.6458,289.6177,643.8495,295.2709,638.1963,295.4746,647.51,298.6769" style="stroke:#333333;stroke-width:1;stroke-linejoin:miter;stroke-miterlimit:10;"/><text fill="#000000" font-family="Courier New" font-size="13" lengthAdjust="spacing" textLength="146.4722" x="614" y="249.9538">salveaz&#259; capturi .pcap</text><text fill="#000000" font-family="Courier New" font-size="13" lengthAdjust="spacing" textLength="139.8071" x="617.3325" y="265.0866">la fiecare 60 secunde</text></g><!--link PcapFolder to PcapWatcher--><g class="link" data-entity-1="ent0011" data-entity-2="ent0013" data-link-type="dependency" data-source-line="70" id="lnk28"><path d="M678,360.7269 C678,401.4669 678,468.5169 678,506.7669" fill="none" id="PcapFolder-to-PcapWatcher" style="stroke:#333333;stroke-width:1;"/><polygon fill="#333333" points="678,511.7669,682,502.7669,678,506.7669,674,502.7669,678,511.7669" style="stroke:#333333;stroke-width:1;stroke-linejoin:miter;stroke-miterlimit:10;"/><text fill="#000000" font-family="Courier New" font-size="13" lengthAdjust="spacing" textLength="140.3276" x="679" y="441.0538">detecteaz&#259; fi&#537;iere noi</text></g><!--link PcapWatcher to PcapQueue--><g class="link" data-entity-1="ent0013" data-entity-2="ent0014" data-link-type="dependency" data-source-line="71" id="lnk29"><path d="M678,564.9669 C678,588.6869 678,617.9369 678,636.1769" fill="none" id="PcapWatcher-to-PcapQueue" style="stroke:#333333;stroke-width:1;"/><polygon fill="#333333" points="678,641.1769,682,632.1769,678,636.1769,674,632.1769,678,641.1769" style="stroke:#333333;stroke-width:1;stroke-linejoin:miter;stroke-miterlimit:10;"/><text fill="#000000" font-family="Courier New" font-size="13" lengthAdjust="spacing" textLength="152.0898" x="679" y="607.6438">adaug&#259; fi&#537;iere &#238;n coad&#259;</text></g><!--link PcapQueue to CicFlowMeter--><g class="link" data-entity-1="ent0014" data-entity-2="ent0015" data-link-type="dependency" data-source-line="72" id="lnk30"><path d="M678,667.9769 C678,686.1969 678,715.8569 678,739.7169" fill="none" id="PcapQueue-to-CicFlowMeter" style="stroke:#333333;stroke-width:1;"/><polygon fill="#333333" points="678,744.7169,682,735.7169,678,739.7169,674,735.7169,678,744.7169" style="stroke:#333333;stroke-width:1;stroke-linejoin:miter;stroke-miterlimit:10;"/><text fill="#000000" font-family="Courier New" font-size="13" lengthAdjust="spacing" textLength="190.874" x="679" y="710.9438">proceseaz&#259; secven&#539;ial *.pcap</text></g><!--link CicFlowMeter to CsvFolder--><g class="link" data-entity-1="ent0015" data-entity-2="ent0016" data-link-type="dependency" data-source-line="73" id="lnk31"><path d="M678,797.9569 C678,819.8769 678,846.3769 678,869.3869" fill="none" id="CicFlowMeter-to-CsvFolder" style="stroke:#333333;stroke-width:1;"/><polygon fill="#333333" points="678,874.3869,682,865.3869,678,869.3869,674,865.3869,678,874.3869" style="stroke:#333333;stroke-width:1;stroke-linejoin:miter;stroke-miterlimit:10;"/><text fill="#000000" font-family="Courier New" font-size="13" lengthAdjust="spacing" textLength="171.2534" x="679" y="840.5338">genereaz&#259; CSV cu flow-uri</text></g><!--link CsvFolder to KafkaProducer--><g class="link" data-entity-1="ent0016" data-entity-2="ent0017" data-link-type="dependency" data-source-line="75" id="lnk32"><path d="M678,936.2669 C678,960.1969 678,987.8869 678,1007.7169" fill="none" id="CsvFolder-to-KafkaProducer" style="stroke:#333333;stroke-width:1;"/><polygon fill="#333333" points="678,1012.7169,682,1003.7169,678,1007.7169,674,1003.7169,678,1012.7169" style="stroke:#333333;stroke-width:1;stroke-linejoin:miter;stroke-miterlimit:10;"/><text fill="#000000" font-family="Courier New" font-size="13" lengthAdjust="spacing" textLength="148.5225" x="679" y="979.1238">detecteaz&#259; CSV-uri noi</text></g><!--link KafkaProducer to CsvQueue--><g class="link" data-entity-1="ent0017" data-entity-2="ent0018" data-link-type="dependency" data-source-line="76" id="lnk33"><path d="M676.62,1049.6569 C675.99,1058.5469 675.31,1069.5169 675,1079.3569 C674.1,1107.7269 675.5667,1136.038 676.7467,1153.698" fill="none" id="KafkaProducer-to-CsvQueue" style="stroke:#333333;stroke-width:1;"/><polygon fill="#333333" points="677.08,1158.6869,680.4711,1149.4402,676.7467,1153.698,672.4889,1149.9736,677.08,1158.6869" style="stroke:#333333;stroke-width:1;stroke-linejoin:miter;stroke-miterlimit:10;"/><text fill="#000000" font-family="Courier New" font-size="13" lengthAdjust="spacing" textLength="116.6255" x="676" y="1092.4238">adaug&#259; fi&#537;iere noi</text><text fill="#000000" font-family="Courier New" font-size="13" lengthAdjust="spacing" textLength="55.269" x="708.7444" y="1107.5566">&#238;n coad&#259;</text></g><!--link CsvQueue to KafkaProducer--><g class="link" data-entity-1="ent0018" data-entity-2="ent0017" data-link-type="dependency" data-source-line="77" id="lnk34"><path d="M722.21,1158.6069 C766.9,1143.5869 826.06,1115.8069 801,1079.3569 C791.93,1066.1669 783.1432,1058.7978 768.6032,1051.9478" fill="none" id="CsvQueue-to-KafkaProducer" style="stroke:#333333;stroke-width:1;"/><polygon fill="#333333" points="764.08,1049.8169,770.517,1057.2711,768.6032,1051.9478,773.9265,1050.034,764.08,1049.8169" style="stroke:#333333;stroke-width:1;stroke-linejoin:miter;stroke-miterlimit:10;"/><text fill="#000000" font-family="Courier New" font-size="13" lengthAdjust="spacing" textLength="161.0527" x="807" y="1099.9238">cite&#537;te r&#226;ndurile din CSV</text></g><!--link KafkaProducer to KafkaTopic--><g class="link" data-entity-1="ent0017" data-entity-2="ent0019" data-link-type="dependency" data-source-line="78" id="lnk35"><path d="M591.94,1043.9569 C550.27,1051.5969 506.56,1063.1769 494,1079.3569 C478.37,1099.5069 481.0438,1125.4796 486.1738,1145.7596" fill="none" id="KafkaProducer-to-KafkaTopic" style="stroke:#333333;stroke-width:1;"/><polygon fill="#333333" points="487.4,1150.6069,489.0707,1140.9008,486.1738,1145.7596,481.315,1142.8626,487.4,1150.6069" style="stroke:#333333;stroke-width:1;stroke-linejoin:miter;stroke-miterlimit:10;"/><text fill="#000000" font-family="Courier New" font-size="13" lengthAdjust="spacing" textLength="170.2632" x="495" y="1099.9238">public&#259; flow-uri ca mesaje</text></g><!--link KafkaTopic to SparkStreaming--><g class="link" data-entity-1="ent0019" data-entity-2="ent0020" data-link-type="dependency" data-source-line="80" id="lnk36"><path d="M510.58,1193.8669 C527.83,1214.2869 556.54,1245.2069 587,1264.9469 C605.09,1276.6769 621.4122,1284.7034 641.5822,1292.7034" fill="none" id="KafkaTopic-to-SparkStreaming" style="stroke:#333333;stroke-width:1;"/><polygon fill="#333333" points="646.23,1294.5469,639.3388,1287.5105,641.5822,1292.7034,636.3893,1294.9469,646.23,1294.5469" style="stroke:#333333;stroke-width:1;stroke-linejoin:miter;stroke-miterlimit:10;"/><text fill="#000000" font-family="Courier New" font-size="13" lengthAdjust="spacing" textLength="179.3276" x="588" y="1246.0138">consum&#259; stream-ul de date</text><text fill="#000000" font-family="Courier New" font-size="13" lengthAdjust="spacing" textLength="182.2856" x="588.5872" y="1261.1466">readStream.format("kafka")</text></g><!--link SavedModel to SparkStreaming--><g class="link" data-entity-1="ent0021" data-entity-2="ent0020" data-link-type="dependency" data-source-line="81" id="lnk37"><path d="M837.15,1203.2769 C812.28,1230.1769 779.6436,1265.4648 756.1236,1290.9148" fill="none" id="SavedModel-to-SparkStreaming" style="stroke:#333333;stroke-width:1;"/><polygon fill="#333333" points="752.73,1294.5869,761.776,1290.6921,756.1236,1290.9148,755.9008,1285.2624,752.73,1294.5869" style="stroke:#333333;stroke-width:1;stroke-linejoin:miter;stroke-miterlimit:10;"/><text fill="#000000" font-family="Courier New" font-size="13" lengthAdjust="spacing" textLength="126.4771" x="817.0205" y="1246.0138">&#238;ncarc&#259; modelul ML</text><text fill="#000000" font-family="Courier New" font-size="13" lengthAdjust="spacing" textLength="144.6504" x="810" y="1261.1466">PipelineModel.load(...)</text></g><!--link SparkStreaming to Preprocess--><g class="link" data-entity-1="ent0020" data-entity-2="ent0022" data-link-type="dependency" data-source-line="82" id="lnk38"><path d="M729,1347.8769 C729,1370.9069 729,1399.1169 729,1419.2169" fill="none" id="SparkStreaming-to-Preprocess" style="stroke:#333333;stroke-width:1;"/><polygon fill="#333333" points="729,1424.2169,733,1415.2169,729,1419.2169,725,1415.2169,729,1424.2169" style="stroke:#333333;stroke-width:1;stroke-linejoin:miter;stroke-miterlimit:10;"/><text fill="#000000" font-family="Courier New" font-size="13" lengthAdjust="spacing" textLength="238.0244" x="730" y="1390.6138">conversie mesaje JSON &#238;n dataframe</text></g><!--link Preprocess to MLModel--><g class="link" data-entity-1="ent0022" data-entity-2="ent0023" data-link-type="dependency" data-source-line="83" id="lnk39"><path d="M729,1461.2669 C729,1484.6169 729,1521.0169 729,1547.7569" fill="none" id="Preprocess-to-MLModel" style="stroke:#333333;stroke-width:1;"/><polygon fill="#333333" points="729,1552.7569,733,1543.7569,729,1547.7569,725,1543.7569,729,1552.7569" style="stroke:#333333;stroke-width:1;stroke-linejoin:miter;stroke-miterlimit:10;"/><text fill="#000000" font-family="Courier New" font-size="13" lengthAdjust="spacing" textLength="93.063" x="730" y="1503.9138">date preg&#259;tite</text><text fill="#000000" font-family="Courier New" font-size="13" lengthAdjust="spacing" textLength="87.7817" x="734.7068" y="1519.0466">pentru model</text></g><!--link MLModel to DetectionResults--><g class="link" data-entity-1="ent0023" data-entity-2="ent0024" data-link-type="dependency" data-source-line="84" id="lnk40"><path d="M729,1605.7169 C729,1630.8769 729,1664.0669 729,1689.1669" fill="none" id="MLModel-to-DetectionResults" style="stroke:#333333;stroke-width:1;"/><polygon fill="#333333" points="729,1694.1669,733,1685.1669,729,1689.1669,725,1685.1669,729,1694.1669" style="stroke:#333333;stroke-width:1;stroke-linejoin:miter;stroke-miterlimit:10;"/><text fill="#000000" font-family="Courier New" font-size="13" lengthAdjust="spacing" textLength="125.6455" x="730" y="1648.5038">genereaz&#259; predic&#539;ii</text></g><!--link DetectionResults to Console--><g class="link" data-entity-1="ent0024" data-entity-2="ent0026" data-link-type="dependency" data-source-line="86" id="lnk41"><path d="M767.51,1747.2469 C780.7,1758.2969 793.91,1772.4269 801,1788.7369 C808.57,1806.1469 802.108,1821.2466 790.578,1836.0066" fill="none" id="DetectionResults-to-Console" style="stroke:#333333;stroke-width:1;"/><polygon fill="#333333" points="787.5,1839.9469,796.1927,1835.3168,790.578,1836.0066,789.8882,1830.392,787.5,1839.9469" style="stroke:#333333;stroke-width:1;stroke-linejoin:miter;stroke-miterlimit:10;"/><text fill="#000000" font-family="Courier New" font-size="13" lengthAdjust="spacing" textLength="93.9326" x="804" y="1801.8038">sumar detec&#539;ii</text></g><!--link DetectionResults to SparkOutput--><g class="link" data-entity-1="ent0024" data-entity-2="ent0025" data-link-type="dependency" data-source-line="87" id="lnk42"><path d="M710.81,1747.1769 C697.31,1764.9969 677.72,1788.5469 657,1805.7369 C643.85,1816.6369 632.783,1824.1746 617.933,1832.8046" fill="none" id="DetectionResults-to-SparkOutput" style="stroke:#333333;stroke-width:1;"/><polygon fill="#333333" points="613.61,1835.3169,623.4012,1834.2532,617.933,1832.8046,619.3816,1827.3363,613.61,1835.3169" style="stroke:#333333;stroke-width:1;stroke-linejoin:miter;stroke-miterlimit:10;"/><text fill="#000000" font-family="Courier New" font-size="13" lengthAdjust="spacing" textLength="102.2227" x="675" y="1801.8038">salvare Parquet</text></g><!--link Operator to Console--><g class="link" data-entity-1="ent0001" data-entity-2="ent0026" data-link-type="dependency" data-source-line="89" id="lnk43"><path d="M331.05,1732.1169 C367.45,1744.3969 428.35,1765.9569 479,1788.7369 C493.69,1795.3369 495.84,1800.2869 511,1805.7369 C573.75,1828.2769 593.23,1819.8669 658,1835.7369 C669.22,1838.4769 676.233,1840.2865 687.733,1843.4865" fill="none" id="Operator-to-Console" style="stroke:#333333;stroke-width:1;"/><polygon fill="#333333" points="692.55,1844.8269,684.9517,1838.5606,687.733,1843.4865,682.8071,1846.2678,692.55,1844.8269" style="stroke:#333333;stroke-width:1;stroke-linejoin:miter;stroke-miterlimit:10;"/><text fill="#000000" font-family="Courier New" font-size="13" lengthAdjust="spacing" textLength="136.0938" x="512" y="1801.8038">urm&#259;re&#537;te predic&#539;iile</text></g><!--link Operator to SparkOutput--><g class="link" data-entity-1="ent0001" data-entity-2="ent0025" data-link-type="dependency" data-source-line="90" id="lnk44"><path d="M277.12,1759.0769 C270.96,1774.8869 268.45,1792.6369 279,1805.7369 C302.13,1834.4569 388.8815,1849.5665 459.9015,1857.5765" fill="none" id="Operator-to-SparkOutput" style="stroke:#333333;stroke-width:1;"/><polygon fill="#333333" points="464.87,1858.1369,456.375,1853.1534,459.9015,1857.5765,455.4784,1861.103,464.87,1858.1369" style="stroke:#333333;stroke-width:1;stroke-linejoin:miter;stroke-miterlimit:10;"/><text fill="#000000" font-family="Courier New" font-size="13" lengthAdjust="spacing" textLength="194.2256" x="280" y="1801.8038">analizeaz&#259; rezultatele ulterior</text></g><?plantuml-src dLRBaXir5DthArHcay3O0LAa88jK3Pvn4PY76KzWuwefZLfs57TBZQJsmAIoobUaikC3-8baCP_5kL8_FGOgzCPjzRdlSsvtq25N_4YBjHF5nxVSQnzKmPyVBPvoASfGEHm69rPQ7l3IMQcySEg0_oHM6t705wLm6xu8Jeb2cpLZVgCDpaJ1huNSh9sjJ3QrkNNyircyUWZ_KcJs1cPy9NAlUa-aBKfhb0cBy0VISqe6OTPv7vAfbQZoCBCcd8b2yQcjd5QEdwcR7khGENjJntyShtwAhL_-cd5StrkNAJU4n_DxfNmx-svsoDxqdMKYY6lXFzdNyV7iCTeoyFLRfQfFJsesUtBypT1HsyZ_uMoMiX8ou63q8kXStmhSZxZm_BnKZlumrZLnj0Xmmu-it60GKmgDTdorD1VgxhqIbU25DHf6vEVZs-ZdD9seBDc-PZ6Tdi_Qcr7XnhfDj4b7P-caBeokhjZHGhajaS5cQlBABuq4JOGsAeQEJX9Yd-qqr_Y5pOkBamXD1tkXZLlefgXoA6Dfl5H6EAt1K0vAoEZYC51v--CjZ5wju2B8CgkAScdmHtb8YZmy-P9x9J4N5VrS9anqyoRrAcN7n-DdTKtyQIrORg_rtJjJwS1_kBoSHtIJo11FUK8-4L67u9F9ivrEDnj1YTjsAH13MkQFwEuHk5U5gnBOHwW56K2MYi-dX_DOmXmFPZO73V-RErylpLoNAaUBgHdj_k5moeKHO6JDetbyvB5C1aJgjrawNOOU1U5cQVWgfZ9CxrSHvCjwM4cAcBJ8K7INmS3WPmBj1fm-dyvoUtEgWd9Betv7mzRKYHKEn-XsufQMBIWwsDjCwRVzNauNl_2rCgJ0H8kftpOjtLzrNDVKfAoIAYau7ZKd_regmZLHka9hS78SRAdbqjGY7LE5lWjoIK_lPzQyEYf9dCgwjmYafuCc_ckJN2S_IRTarhrmXYqxXTvpVdh2lSYt8dJiYG-IlTYgBFxTJMZkL5TprhIsFVMx-CCorvAmHHrrQUBT18CsVcLTyM0ocJnCQ-vaRyWBTOjt64A1tK79k_SQ2wH4CxGCAhkIkV2UVm4Bp3vJHgQKZWWRjCLUzJ3tRASBdbfqPQi0we0skLqJtJXb90AV2uVPXQwPvn78xgysRtFmOCnzLGZ7cyIGfEQ93n6YQ0KqIuEsIYTmR0mQHDeNQNTeFg7DWAm4NsaL-zVjECPwneslMerm5fiKahjM3CPgreSrPf6gjDioKQtx1X_-CYYKECuw75drjGZ3DFOK3VbjbK7f8kUVnmhO01tD6n72DgepcP9OPTMgdh4EHrO36UxK2DCuEIfnYAlZ_MEDiC30UfMsu7qn8JTrzmuiT1_-D1aYvabxYBydRgTfQb9r3HLGwBe-p9aNqD0h3BE7ZA-RWNGfBWXKnQ_EU3YkSjho93qaZvCiWIU9kGz6cxW57h9Em_lzecuGYxAAWgpYIjXP1fCSZOa2PJlsaK2jwbEQU4rwhUh2-8-ByxD88zBS2jzPYlKCoBxMEysJge5oC9wWOs4bzEMgb1fhW6Iqg-iXZphrCNOF6VcGv4YYYu9jLehU3-zflzPfVAsbxS1Oyu6tuxfoc9TBREaomX8Ou8U-quiwLU6QZGTlkC47cNL_0m00?></g></svg>